# xmcd
#
# Track frame offsets:
#	150
#	13720
#	25820
#	43777
#	57245
#	73115
#	86115
#	98995
#	113767
#	128332
#	141132
#	158672
#
# Disc length: 2317 seconds
#
# Revision: 1
# Processed by: cddbd v1.5PL3 Copyright (c) Steve Scherf et al.
# Submitted via: CDex 1.50Beta5
#
DISCID=9a090b0c
DTITLE=Caravelli - Only You
DYEAR=1900
DGENRE=Classical
TTITLE0=Red Roses For A Blue Lady
TTITLE1=Moon River
TTITLE2=Save The Last Dance For Me
TTITLE3=Down Town
TTITLE4=Strangers in the Night
TTITLE5=Classic and Sequencer
TTITLE6=Only You
TTITLE7=You Are The Sunshine Of My Life
TTITLE8=Cuando Calienta el Sol
TTITLE9=Yesterday
TTITLE10=Can't Help Falling In Love
TTITLE11=Everybody Loves Somebody
EXTD=
EXTT0=
EXTT1=
EXTT2=
EXTT3=
EXTT4=
EXTT5=
EXTT6=
EXTT7=
EXTT8=
EXTT9=
EXTT10=
EXTT11=
PLAYORDER=
